<svg xmlns="http://www.w3.org/2000/svg" width="642" height="420" viewBox="0 0 642 420" fill="none"><g clip-path="url(#clip0)"><path d="M290.3 9C250.7 25.9 265 76.6 195.2 80.9C165.9 82.7 120 49.4 86.2 80.9C64.4 101.2 84.3 135.5 67 180.5C59.3 200.8 0 222.7 0 285.5C0 355.5 77.2 367.1 77.2 367.1H533.2C533.2 367.1 641 362.6 641 265C641 187 552 148.5 504.3 147.2C456.6 145.9 411.8 -42.8 290.3 9Z" fill="#E1F9FF"/><path d="M522.6 150.8C522.6 150.8 454.9 152 449.3 145.2C443.7 138.3 450.1 137.1 460.8 135.1C471.5 133.1 463.1 121.6 470.4 120.8C477.7 120 479 129.6 487 128.4C495.1 127.2 491.5 118.1 499.1 114.2C510.4 108.3 512 134.3 522.7 132.1C530 130.6 529 123.6 534.2 124.8C541.3 126.5 535.6 139.2 541.8 141.2C548.1 143.2 561.8 138.8 558.9 145.2C556.1 151.6 522.6 150.8 522.6 150.8Z" fill="#AFF5F9"/><path d="M468.8 419.699C500.998 419.699 527.1 417.908 527.1 415.699C527.1 413.49 500.998 411.699 468.8 411.699C436.602 411.699 410.5 413.49 410.5 415.699C410.5 417.908 436.602 419.699 468.8 419.699Z" fill="#E4EAEF"/><path d="M575.6 419.699C604.595 419.699 628.1 417.908 628.1 415.699C628.1 413.49 604.595 411.699 575.6 411.699C546.605 411.699 523.1 413.49 523.1 415.699C523.1 417.908 546.605 419.699 575.6 419.699Z" fill="#E4EAEF"/><path d="M480.2 266.1H108.2C104.9 266.1 102.3 263.5 102.3 260.2V65.3004C102.3 62.0004 104.9 59.4004 108.2 59.4004H480.2C483.5 59.4004 486.1 62.0004 486.1 65.3004V260.1C486.1 263.4 483.5 266.1 480.2 266.1Z" fill="#0055FF"/><path d="M592.2 341.6L602.9 412.5" stroke="#FEBF50" stroke-width="4.517" stroke-miterlimit="10" stroke-linecap="round" stroke-linejoin="round"/><path d="M556.5 412.5C556.5 412.3 561.7 378 567.2 341.9" stroke="#FEBF50" stroke-width="4.517" stroke-miterlimit="10" stroke-linecap="round" stroke-linejoin="round"/><path d="M136.1 65.4004H480.2V260.2H472.5" stroke="#6AE3EF" stroke-width="1.476" stroke-miterlimit="10" stroke-linecap="round" stroke-linejoin="round"/><path d="M465 260.2H108.3V65.4004H127.5" stroke="#6AE3EF" stroke-width="1.476" stroke-miterlimit="10" stroke-linecap="round" stroke-linejoin="round"/><path d="M100.1 205.4C100.1 205.4 25.2997 206.7 19.0997 199.2C12.8997 191.6 19.9997 190.3 31.7997 188.1C43.5997 185.9 34.2997 173.2 42.3997 172.3C50.3997 171.4 51.8997 182 60.7997 180.6C69.6997 179.3 65.7997 169.2 74.1997 164.9C86.6997 158.4 88.4997 187.1 100.2 184.6C108.2 182.9 107.2 175.2 112.9 176.6C120.7 178.4 114.4 192.5 121.3 194.7C128.2 196.9 143.4 192 140.2 199.2C137 206.3 100.1 205.4 100.1 205.4Z" fill="#AFF5F9"/><path d="M550.8 339C551.8 341.7 554.5 343.5 557.4 343.5H588.8C598.3 343.5 606.3 336.3 607.3 326.8L614.9 267.8C615.2 265.8 613.9 263.9 611.9 263.4L603.6 323.1C602.3 332.2 594.6 339 585.4 339H550.8Z" fill="#FEBF50"/><path d="M407.3 287.2H420.1C421.1 287.2 421.9 288 421.9 289V410.2V413C421.9 414 422.7 414.8 423.7 414.8H445.5H464.4C465.4 414.8 466.2 414 466.2 413C466.2 411.5 465 410.2 463.4 410.2H447.3C446.3 410.2 445.5 409.4 445.5 408.4V289C445.5 288 446.3 287.2 447.3 287.2H536.3C537.3 287.2 538.1 286.4 538.1 285.4V284.4C538.1 283.4 537.3 282.6 536.3 282.6H407.3C406.3 282.6 405.5 283.4 405.5 284.4V285.4C405.5 286.4 406.3 287.2 407.3 287.2Z" fill="#FEBF50"/><path d="M476.1 394.1C476.1 394.1 474.6 398.6 474.3 399.5C472.7 403.8 465.1 402.8 465.1 402.8C465.1 402.8 467.9 409.1 473.6 409.1C479.3 409.1 481.8 408.2 481.9 406.3C482 402.1 490.3 392 490.3 392L476.1 394.1Z" fill="#FA8E6E"/><path d="M557.6 402.3C557.6 402.3 559.4 404.5 555.7 406.3C552 408.1 549.6 409.8 549.6 409.8C549.6 409.8 562.6 414.2 565.7 412.8C568.8 411.4 568.8 408.1 568.4 407.1C568 406.1 565.3 399.4 565.3 399.4L557.6 402.3Z" fill="#FA8E6E"/><path d="M556 225.5L544.2 265.3L521.7 273.6C521.7 273.6 518.6 276.2 521.7 278.8C524.8 281.4 530.2 276.2 530.2 276.2L556.7 272.2L573 255.4L556 225.5Z" fill="#FEBF50"/><path d="M556 225.5L544.2 265.3L521.7 273.6C521.7 273.6 518.6 276.2 521.7 278.8C524.8 281.4 530.2 276.2 530.2 276.2L556.7 272.2L573 255.4L556 225.5Z" fill="url(#paint0_linear)"/><path d="M579.5 338.699L525.8 338.199C525.8 338.199 513.8 362.899 505.8 374.999C500.5 382.999 485.4 399.599 485.4 399.599C485.4 399.599 483.6 400.399 479.5 399.299C475.4 398.199 474.3 397.199 474.3 397.199C474.3 397.199 505.2 322.099 515.6 317.099C525.4 312.399 565.1 309.199 579.6 308.699C592 308.299 579.5 338.699 579.5 338.699Z" fill="#1039B2"/><path d="M591.1 211.6C588.4 209.6 580.2 193.9 578.2 188.5L576.3 182.5C576.8 181.1 577.4 179.7 577.9 178.2C581.8 167.2 580.7 155.8 570.9 156C555.2 156.4 549.6 151.7 544.8 166.7C544.4 168 543.8 173.4 544.5 179.7C544.7 181.4 542.2 187.1 542.5 188.9C542.9 190.8 546.1 188.8 546.7 190.6C547.6 193.2 548.2 194.4 548.7 197C549.9 203.2 559.2 201.1 563.6 198.3C565.3 204.8 568.5 213 570 215C572.1 217.7 593.8 213.6 591.1 211.6Z" fill="#FA8E6E"/><path d="M599.7 299.6C599.7 299.6 606.5 320.8 602.3 329C597.7 338 586.7 339 586.7 339L550.7 339.1C546.1 339.1 542.4 343.7 544.5 347.8C547.4 353.4 550.9 360.5 552.9 366.2C557.3 378.5 566.1 400.7 566.1 400.7C566.1 400.7 565.8 401.3 561.7 402.5C558 403.5 557.4 402.5 557.4 402.5C557.4 402.5 517.2 353.6 514.4 347.7C511.7 341.8 502.3 332.4 509.6 325.6C515.9 319.7 529.3 317.3 549.7 311.4C570.1 305.5 567.7 306.1 567.7 306.1C567.7 306.1 597.5 305 599.7 299.6Z" fill="#0055FF"/><path d="M555.3 227.2C557.1 221.8 568.2 211.5 568.2 211.5C568.2 211.5 568 214.9 577.5 214.2C580.7 214 588.6 211.5 591.1 211.5C603.8 211.2 606.7 229.7 605.6 250.1C604.9 263.6 602.6 295.8 601.5 308C601.2 311.6 587.6 310.3 579.6 308.7C563.8 305.5 568.4 306.8 565.5 306.7C565.5 306.7 565.7 298.2 565.7 287.8C565.7 275.5 562.3 267.9 560.7 266C558.7 263.6 553.3 233.3 555.3 227.2Z" fill="#FEBF50"/><path d="M447.8 224.5L435.7 275.5C434.9 278.7 437.3 281.7 440.6 281.7H468.2" stroke="#59CFE2" stroke-width="2.0709" stroke-miterlimit="10"/><path d="M468.3 271.701L466.2 272.301L449.7 231.701C448.1 227.801 446.9 223.701 446.2 219.601L438.8 176.401L440.9 175.801L468.3 271.701Z" fill="#59CFE2"/><path d="M500.6 280.6H475.2V282.8H500.6V280.6Z" fill="#59CFE2"/><path d="M588.7 218C587.3 219.1 554.5 264.7 554.5 264.7L520.1 272.3C520.1 272.3 518.2 281.1 520.4 281.7C522.6 282.4 551.9 281.8 556.2 280.1C558.6 279.1 571.7 268.3 583.1 258.1C589.4 252.5 595.1 247 598.4 243.5C599.7 242.1 600.6 240.9 601 240.2C604 234.5 600.4 208.3 588.7 218Z" fill="#FEBF50"/><path d="M583.9 277.501L600.9 240.301L563.8 273.101C562 274.901 569.9 284.601 572.3 283.601C573.1 283.301 583 278.301 583.9 277.501Z" fill="url(#paint1_linear)"/><path d="M521.1 272.3C521.1 272.3 509.8 273.8 506.9 273.8C504 273.8 501.6 269 496.5 270.7C491.4 272.4 484.5 278.1 484.7 278.6C484.9 279.2 484 280 485.3 280C486.6 280 498.3 277.6 501.5 279.7C502.9 280.6 520.3 281.6 520.3 281.6C520.3 281.6 520.2 277.6 520.4 275.7C520.6 273.8 521.1 272.3 521.1 272.3Z" fill="#FA8E6E"/><path d="M544.2 169.3C551.7 173.9 551.6 173.1 558.4 175.7C565.2 178.4 561.8 184.8 561.8 184.8C561.8 184.8 563.8 186.3 566.5 178C567.7 174.2 574.9 177.5 569.3 184.8C567.2 187.6 580.3 193.2 580.3 193.2C580.3 193.2 579.4 188 584.3 171.3C587.5 160.2 575.2 143.9 556.6 152.7C549.4 156 548.5 151.1 543.7 153.2C534.6 157.2 537.5 165.3 544.2 169.3Z" fill="#1039B2"/><path d="M555 406.301C554.1 406.301 542.8 409.201 540.6 410.301C538.3 411.401 538.9 414.401 541.1 414.401C541.8 414.401 569.9 414.401 569.9 414.401C569.9 414.401 571.1 411.701 570.6 409.201C570.2 407.301 568.6 405.301 568.6 405.301C568.6 405.301 564 409.801 559.8 409.801C556.1 409.801 555 406.301 555 406.301Z" fill="black"/><path d="M468.7 402.099C467.8 401.799 456.2 401.399 453.7 401.799C451.2 402.199 450.9 405.199 453 405.899C453.7 406.099 480.6 414.099 480.6 414.099C480.6 414.099 482.6 411.799 482.7 409.299C482.8 407.399 481.9 404.999 481.9 404.999C481.9 404.999 476.2 407.999 472.1 406.799C468.8 405.799 468.7 402.099 468.7 402.099Z" fill="black"/><path d="M442.5 229.5C442.5 229.5 369.9 280.2 361.8 368.2C356.4 427.8 390.3 413.2 405.5 399.2C418.5 387.3 438.6 335.2 381.4 359.4C324.2 383.6 283.6 402 267.4 373.2C251.9 345.8 275.7 264 225.4 305.3C178.6 343.7 140.6 264.2 146.5 267.2" stroke="#6AE3EF" stroke-width="1.476" stroke-miterlimit="10" stroke-linecap="round" stroke-linejoin="round"/><path d="M58.0996 329.9C58.0996 329.9 58.6996 329.1 59.4996 328C61.3996 325.2 59.1996 321.7 63.6996 316C65.8996 313.3 69.5996 312.2 71.8996 310.7C73.6996 309.5 75.9996 307.4 75.8996 307.3C75.7996 307.2 76.4996 312 75.4996 319.5C74.9996 323.2 73.3996 326.5 69.0996 328.4C64.9996 330.2 61.1996 328.8 60.4996 329.2C59.0996 329.9 59.4996 331.8 59.1996 332C58.8996 332.2 58.0996 329.9 58.0996 329.9Z" fill="#6AE3EF"/><path d="M25.3994 259.5C25.3994 259.5 39.7994 265.7 48.9994 292.6C54.1994 307.9 49.6994 337.9 78.8994 349.4C90.6994 354.1 118.299 359.3 118.299 359.3" stroke="#6AE3EF" stroke-width="1.476" stroke-miterlimit="10" stroke-linecap="round" stroke-linejoin="round"/><path d="M59.5996 334.2C59.5996 334.2 59.2996 334.8 57.8996 334.7C56.7996 334.6 51.1996 330.5 44.7996 330.5C37.2996 330.5 28.7996 337.4 23.5996 336.6C23.5996 336.6 35.4996 347.4 47.6996 345C56.6996 343.2 57.5996 337.1 58.4996 336.3C59.4996 335.4 60.3996 335.6 60.3996 335.6L59.5996 334.2Z" fill="#6AE3EF"/><path d="M40.8998 275.3C40.8998 275.3 42.2998 273.1 41.1998 269.3C39.3998 263.1 43.1998 261.3 46.2998 258.4C49.3998 255.6 48.9998 251.4 48.9998 251.4C48.9998 251.4 53.4998 259.4 51.9998 264.7C50.4998 270 49.3998 270.3 43.0998 273.7C42.1998 274.2 41.4998 276.8 41.4998 276.8L40.8998 275.3Z" fill="#6AE3EF"/><path d="M34.9996 268.2C34.9996 268.2 32.9996 268.599 30.3996 266.799C26.1996 263.799 23.6996 266.1 20.6996 267.7C17.6996 269.3 14.5996 267.899 14.5996 267.899C14.5996 267.899 19.3996 273.499 23.8996 273.899C28.3996 274.199 28.8996 273.5 33.1996 269.6C33.7996 269 35.9996 269.2 35.9996 269.2L34.9996 268.2Z" fill="#6AE3EF"/><path d="M46.9998 287C46.9998 287 46.0998 287.8 44.2998 287.2C42.4998 286.6 38.1998 284 34.4998 283.3C29.0998 282.3 21.5998 287 17.3998 284.7C16.6998 284.3 24.9998 293.3 32.6998 293.7C39.9998 294.1 43.7998 288.8 45.3998 288.5C46.9998 288.3 47.7998 288.3 47.7998 288.3L46.9998 287Z" fill="#6AE3EF"/><path d="M50.8 300.3C50.8 300.3 51.7 299.4 52.2 298.1C52.6 297 51.9 292.9 53.6 289.3C55.1 286.1 57.3 285.8 59.6 281.6C60.7 279.7 61.4 277 61.4 276.9C61.3 276.8 64.1 281.1 64.6 288.6C64.8 292.3 63.3 296.6 59.7 298.3C56.1 300.1 53.4 300 52.6 300.4C51.9 300.8 51.3 302.3 51 302.5C50.6 302.7 50.8 300.3 50.8 300.3Z" fill="#6AE3EF"/><path d="M51.4998 308.401C51.4998 308.401 50.7998 309.101 49.8998 309.001C48.8998 308.901 44.3998 304.601 38.6998 304.001C31.9998 303.201 23.7998 308.501 19.2998 307.301C19.2998 307.301 27.6998 317.901 38.7998 317.301C47.7998 316.801 49.5998 311.201 50.4998 310.601C51.3998 310.001 52.2998 310.401 52.2998 310.401L51.4998 308.401Z" fill="#6AE3EF"/><path d="M125.399 307.9C133.199 306 140.399 298.8 146.299 303.7C152.199 308.6 142.599 315.5 146.299 319.5C149.999 323.4 161.799 314.6 166.699 319.5C173.099 325.9 152.399 338 149.699 344.2C146.999 350.4 161.299 343.1 159.499 351.1C157.799 359.1 143.499 361.5 143.799 365.7C143.999 369.9 150.699 364.6 152.399 371C154.099 377.4 124.799 388.3 118.699 387.7C112.499 387.1 78.5993 354.6 81.2993 339.6C84.0993 324.5 120.699 309 125.399 307.9Z" fill="#59CFE2"/><path d="M68.5 360.799C59.8 359.299 60.3 359.399 53.2 355.299C47.2 351.799 42 351.899 42 351.899C42 351.899 45.4 353.499 51 359.999C54 363.499 57.2 365.499 63.6 367.599C72.9 370.599 76.5 376.299 79.8 378.999C88.6 386.199 89.9 380.299 89.9 380.299C89.9 380.299 79.5 362.699 68.5 360.799Z" fill="#FEBF50"/><path d="M62.1998 369.699C53.3998 370.599 53.8998 370.599 45.9998 368.499C39.1998 366.799 34.2998 368.299 34.2998 368.299C34.2998 368.299 37.9998 368.999 45.1998 373.699C49.0998 376.199 52.6998 377.299 59.3998 377.599C69.0998 377.999 74.1998 382.499 78.0998 384.099C88.4998 388.599 88.1998 382.599 88.1998 382.599C88.1998 382.599 73.2998 368.499 62.1998 369.699Z" fill="#FEBF50"/><path d="M60.4998 379.898C52.2998 383.298 52.7998 383.098 44.5998 383.398C37.5998 383.698 33.2998 386.598 33.2998 386.598C33.2998 386.598 36.9998 386.198 45.2998 388.598C49.6998 389.898 53.4998 389.898 59.9998 388.198C69.3998 385.798 75.5998 388.598 79.7998 389.098C90.9998 390.398 88.9998 384.698 88.9998 384.698C88.9998 384.698 70.7998 375.598 60.4998 379.898Z" fill="#FEBF50"/><path d="M110.9 390.1C109.3 389.4 61.4997 359.5 62.9997 347.5C63.6997 341.8 73.7997 348.1 75.4997 342C77.5997 334.5 54.4997 320.8 59.0997 313.6C64.5997 305 79.7997 318.3 81.1997 315.2C82.6997 312 63.5997 297.099 69.4997 287.299C74.0997 279.599 80.9997 291.4 85.1997 286.5C89.3997 281.6 70.9997 252.9 80.2997 248.5C85.0997 246.2 89.3997 253.8 91.5997 247.7C93.6997 241.6 87.5997 217.5 99.4997 220C111.5 222.5 109 250.1 108.9 257.4C108.8 264.7 110.2 263.7 118.1 262.9C125.9 262.1 128.1 275.299 119.2 284.799C110.3 294.299 122.6 284.799 132.2 287.899C141.7 290.899 122.1 312.399 121.6 319.899C121 327.499 134.2 315.899 139 323.799C143.8 331.599 117.2 359.2 115.1 365.9C113 372.7 118.8 390 118.8 390C118.8 390 115.6 392.2 110.9 390.1Z" fill="#277AFF"/><path d="M106.2 383.3C106.2 383.3 92.9997 361.4 96.4997 315.7C97.9997 295.8 99.3997 267.1 99.4997 256.8C99.6997 240.7 97.8998 221.4 97.8998 221.4" stroke="#1039B2" stroke-width="0.738" stroke-miterlimit="10" stroke-linecap="round" stroke-linejoin="round"/><path d="M131.6 290.201C131.6 290.201 121.2 295.901 108.9 306.001C100.7 312.701 96.5 317.001 96.5 317.001" stroke="#1039B2" stroke-width="0.738" stroke-miterlimit="10" stroke-linecap="round" stroke-linejoin="round"/><path d="M96.6996 314.1C96.6996 314.1 91.4996 308.4 82.4996 298.8C79.4996 295.6 71.5996 289.1 71.5996 289.1" stroke="#1039B2" stroke-width="0.738" stroke-miterlimit="10" stroke-linecap="round" stroke-linejoin="round"/><path d="M97.2002 351.701C97.6002 351.501 105.5 344.101 116.9 336.101C125.6 329.901 136.1 324.201 136.1 324.201" stroke="#1039B2" stroke-width="0.738" stroke-miterlimit="10" stroke-linecap="round" stroke-linejoin="round"/><path d="M96.6 345.8C96.6 345.8 86.5 335.3 79.2 328.3C71.9 321.3 63 314.1 63 314.1" stroke="#1039B2" stroke-width="0.738" stroke-miterlimit="10" stroke-linecap="round" stroke-linejoin="round"/><path d="M98.5 284.7C98.5 284.3 106 277.5 110.7 273.6C116 269.3 120.3 267.1 120.3 267.1" stroke="#1039B2" stroke-width="0.738" stroke-miterlimit="10" stroke-linecap="round" stroke-linejoin="round"/><path d="M98.7002 281.101C98.7002 281.101 92.5002 267.101 89.0002 262.101C85.7002 257.301 81.7002 251.701 81.7002 251.701" stroke="#1039B2" stroke-width="0.738" stroke-miterlimit="10" stroke-linecap="round" stroke-linejoin="round"/><path d="M139.099 395.8C139.099 395.8 92.2994 395.8 89.9994 395.8C66.3994 395.8 56.3994 395.9 57.4994 389.4C58.0994 385.8 64.5994 388.7 68.9994 383.4C72.5994 379.1 67.6994 369.5 69.7994 367.3C73.4994 363.4 86.2994 377.7 91.4994 371.6C95.1994 367.3 92.6994 356.4 98.4994 356.4C106.299 356.5 105.099 378.7 111.799 374.3C118.399 369.9 128.499 361.7 127.999 370.2C127.499 378.8 125.799 385.9 133.499 381.4C141.199 376.9 148.299 372.8 148.299 380.2C148.299 387.6 149.399 391.4 154.899 389.4C162.499 386.6 166.999 395.3 162.299 395.4C150.999 395.8 139.099 395.8 139.099 395.8Z" fill="#AFF5F9"/><path d="M303 194H328.6L364 117.6L330.9 145.3L303 194Z" stroke="white" stroke-width="2" stroke-miterlimit="10" stroke-linecap="round" stroke-linejoin="round"/><path d="M329.8 203.9C330.2 203.8 415.1 203.9 415.1 203.9L368.7 123L354.1 161.4L381.5 193.9L329.8 203.9Z" stroke="white" stroke-width="2" stroke-miterlimit="10" stroke-linecap="round" stroke-linejoin="round"/><path d="M166.3 180.4H183.2" stroke="white" stroke-width="2" stroke-miterlimit="10" stroke-linecap="round" stroke-linejoin="round"/><path d="M241.3 180.4H263.5" stroke="white" stroke-width="2" stroke-miterlimit="10" stroke-linecap="round" stroke-linejoin="round"/><path d="M189.899 180.4H199.499" stroke="white" stroke-width="2" stroke-miterlimit="10" stroke-linecap="round" stroke-linejoin="round"/><path d="M206 180.4H234.7" stroke="white" stroke-width="2" stroke-miterlimit="10" stroke-linecap="round" stroke-linejoin="round"/><path d="M166.3 189.1H189.9" stroke="white" stroke-width="2" stroke-miterlimit="10" stroke-linecap="round" stroke-linejoin="round"/><path d="M241.3 189.1H253.7" stroke="white" stroke-width="2" stroke-miterlimit="10" stroke-linecap="round" stroke-linejoin="round"/><path d="M196.5 189.1H209.6" stroke="white" stroke-width="2" stroke-miterlimit="10" stroke-linecap="round" stroke-linejoin="round"/><path d="M216.1 189.1H234.7" stroke="white" stroke-width="2" stroke-miterlimit="10" stroke-linecap="round" stroke-linejoin="round"/><path d="M166.3 197.9H176.3" stroke="white" stroke-width="2" stroke-miterlimit="10" stroke-linecap="round" stroke-linejoin="round"/><path d="M250 197.9H261.2" stroke="white" stroke-width="2" stroke-miterlimit="10" stroke-linecap="round" stroke-linejoin="round"/><path d="M183 197.9H209.6" stroke="white" stroke-width="2" stroke-miterlimit="10" stroke-linecap="round" stroke-linejoin="round"/><path d="M216.1 197.9H243.5" stroke="white" stroke-width="2" stroke-miterlimit="10" stroke-linecap="round" stroke-linejoin="round"/><path d="M166.3 119.699H183.2" stroke="white" stroke-width="2" stroke-miterlimit="10" stroke-linecap="round" stroke-linejoin="round"/><path d="M241.3 119.699H263.5" stroke="white" stroke-width="2" stroke-miterlimit="10" stroke-linecap="round" stroke-linejoin="round"/><path d="M189.899 119.699H199.499" stroke="white" stroke-width="2" stroke-miterlimit="10" stroke-linecap="round" stroke-linejoin="round"/><path d="M206 119.699H234.7" stroke="white" stroke-width="2" stroke-miterlimit="10" stroke-linecap="round" stroke-linejoin="round"/><path d="M166.3 128.299H189.9" stroke="white" stroke-width="2" stroke-miterlimit="10" stroke-linecap="round" stroke-linejoin="round"/><path d="M241.3 128.299H253.7" stroke="white" stroke-width="2" stroke-miterlimit="10" stroke-linecap="round" stroke-linejoin="round"/><path d="M196.5 128.299H209.6" stroke="white" stroke-width="2" stroke-miterlimit="10" stroke-linecap="round" stroke-linejoin="round"/><path d="M216.1 128.299H234.7" stroke="white" stroke-width="2" stroke-miterlimit="10" stroke-linecap="round" stroke-linejoin="round"/><path d="M166.3 137.199H176.3" stroke="white" stroke-width="2" stroke-miterlimit="10" stroke-linecap="round" stroke-linejoin="round"/><path d="M250 137.199H261.2" stroke="white" stroke-width="2" stroke-miterlimit="10" stroke-linecap="round" stroke-linejoin="round"/><path d="M183 137.199H209.6" stroke="white" stroke-width="2" stroke-miterlimit="10" stroke-linecap="round" stroke-linejoin="round"/><path d="M216.1 137.199H243.5" stroke="white" stroke-width="2" stroke-miterlimit="10" stroke-linecap="round" stroke-linejoin="round"/></g><defs><linearGradient id="paint0_linear" x1="520.325" y1="252.553" x2="573.079" y2="252.553" gradientUnits="userSpaceOnUse"><stop offset="0.0109296" stop-color="#FF8B00"/><stop offset="0.0484321" stop-color="#FF8E04"/><stop offset="0.469" stop-color="#FEA82D"/><stop offset="0.8005" stop-color="#FEB947"/><stop offset="1" stop-color="#FEBF50"/></linearGradient><linearGradient id="paint1_linear" x1="575.149" y1="250.845" x2="585.503" y2="261.717" gradientUnits="userSpaceOnUse"><stop offset="0.0109296" stop-color="#FF8B00"/><stop offset="0.0484321" stop-color="#FF8E04"/><stop offset="0.469" stop-color="#FEA82D"/><stop offset="0.8005" stop-color="#FEB947"/><stop offset="1" stop-color="#FEBF50"/></linearGradient><clipPath id="clip0"><rect width="641.1" height="419.7" fill="white"/></clipPath></defs></svg>